<svg width="33" height="33" viewBox="0 0 33 33" fill="none" xmlns="http://www.w3.org/2000/svg">
<path d="M17.6969 10.4048C17.6969 10.1206 17.582 9.84809 17.3774 9.64716C17.1728 9.44623 16.8954 9.33334 16.606 9.33334C16.3167 9.33334 16.0392 9.44623 15.8347 9.64716C15.6301 9.84809 15.5151 10.1206 15.5151 10.4048V15.4048H10.4242C10.1349 15.4048 9.85742 15.5177 9.65283 15.7186C9.44825 15.9195 9.33331 16.192 9.33331 16.4762C9.33331 16.7604 9.44825 17.0329 9.65283 17.2338C9.85742 17.4347 10.1349 17.5476 10.4242 17.5476H15.5151V22.5476C15.5151 22.8318 15.6301 23.1043 15.8347 23.3052C16.0392 23.5062 16.3167 23.6191 16.606 23.6191C16.8954 23.6191 17.1728 23.5062 17.3774 23.3052C17.582 23.1043 17.6969 22.8318 17.6969 22.5476V17.5476H22.7879C23.0772 17.5476 23.3547 17.4347 23.5592 17.2338C23.7638 17.0329 23.8788 16.7604 23.8788 16.4762C23.8788 16.192 23.7638 15.9195 23.5592 15.7186C23.3547 15.5177 23.0772 15.4048 22.7879 15.4048H17.6969V10.4048Z" fill="#43CEA2"/>
<path d="M16.8485 1.33334C25.4171 1.33334 32.3636 8.2799 32.3636 16.8485C32.3636 25.4171 25.4171 32.3636 16.8485 32.3636C8.27987 32.3636 1.33331 25.4171 1.33331 16.8485C1.33331 8.2799 8.27987 1.33334 16.8485 1.33334ZM3.44902 16.8485C3.44902 20.4022 4.86074 23.8105 7.37362 26.3233C9.88651 28.8362 13.2947 30.2479 16.8485 30.2479C20.4022 30.2479 23.8104 28.8362 26.3233 26.3233C28.8362 23.8105 30.2479 20.4022 30.2479 16.8485C30.2479 13.2947 28.8362 9.88654 26.3233 7.37365C23.8104 4.86077 20.4022 3.44905 16.8485 3.44905C13.2947 3.44905 9.88651 4.86077 7.37362 7.37365C4.86074 9.88654 3.44902 13.2947 3.44902 16.8485Z" fill="#43CEA2"/>
</svg>
