<svg width="28" height="30" viewBox="0 0 28 30" fill="none" xmlns="http://www.w3.org/2000/svg">
<path d="M26.9722 20.1389C25.7855 18.0977 25.1552 15.1678 25.1552 11.6719C25.1552 8.62603 23.9453 5.70493 21.7915 3.5512C19.6378 1.39746 16.7167 0.1875 13.6708 0.1875C10.625 0.1875 7.7039 1.39746 5.55017 3.5512C3.39643 5.70493 2.18647 8.62603 2.18647 11.6719C2.18647 15.1691 1.55893 18.0977 0.372212 20.1389C0.130058 20.5552 0.00169655 21.0279 1.67024e-05 21.5096C-0.00166314 21.9912 0.123397 22.4648 0.362642 22.8828C0.600373 23.3011 0.945425 23.6483 1.36218 23.8886C1.77893 24.129 2.25227 24.2537 2.73334 24.25H24.6083C25.0887 24.253 25.5612 24.1279 25.9772 23.8876C26.3931 23.6473 26.7376 23.3004 26.9749 22.8828C27.2152 22.4654 27.3415 21.9921 27.341 21.5105C27.3405 21.0288 27.2133 20.5558 26.9722 20.1389ZM3.64389 20.9688C4.85385 18.5078 5.46772 15.3824 5.46772 11.6719C5.46772 9.49627 6.33198 7.40977 7.87036 5.87139C9.40874 4.33301 11.4952 3.46875 13.6708 3.46875C15.8464 3.46875 17.9329 4.33301 19.4713 5.87139C21.0097 7.40977 21.874 9.49627 21.874 11.6719C21.874 15.3811 22.4865 18.5078 23.6964 20.9688H3.64389ZM19.6865 28.0781C19.6865 28.5132 19.5136 28.9305 19.2059 29.2382C18.8983 29.5459 18.481 29.7188 18.0458 29.7188H9.29585C8.86072 29.7187 8.44342 29.5459 8.13575 29.2382C7.82807 28.9305 7.65522 28.5132 7.65522 28.0781C7.65522 27.643 7.82807 27.2257 8.13575 26.918C8.44342 26.6104 8.86072 26.4375 9.29585 26.4375H18.0458C18.481 26.4375 18.8983 26.6104 19.2059 26.918C19.5136 27.2257 19.6865 27.643 19.6865 28.0781Z" fill="#F2F2F2"/>
</svg>
