<svg width="27" height="25" viewBox="0 0 27 25" fill="none" xmlns="http://www.w3.org/2000/svg">
<path d="M13.5013 2.34935C16.5355 -0.374166 21.2242 -0.283749 24.1467 2.64492C27.0694 5.5736 27.1697 10.2395 24.4516 13.2826L13.4999 24.2515L2.54849 13.2826C-0.169605 10.2395 -0.0680028 5.56622 2.8533 2.64492C5.7779 -0.27968 10.4584 -0.378209 13.5013 2.34935ZM22.3182 4.46971C20.3819 2.52942 17.2557 2.45072 15.227 4.27179L13.5025 5.81969L11.7771 4.27301C9.74255 2.44938 6.62199 2.5296 4.67998 4.47161C2.75574 6.39586 2.65913 9.47776 4.43245 11.5133L13.4999 20.5951L22.5677 11.5133C24.3416 9.47699 24.2454 6.40095 22.3182 4.46971Z" fill="#F2F2F2"/>
</svg>
