<svg width="35" height="35" viewBox="0 0 35 35" fill="none" xmlns="http://www.w3.org/2000/svg">
<path d="M22.3465 9.99353L14.8379 17.5L22.3444 25.0065L20.8888 26.4621L11.9268 17.5L20.8909 8.53588L22.3465 9.99353ZM35 17.5C35 27.1497 27.1497 35 17.5 35C7.85029 35 0 27.1497 0 17.5C0 7.85029 7.85029 0 17.5 0C27.1497 0 35 7.85029 35 17.5ZM32.9412 17.5C32.9412 8.98471 26.0153 2.05882 17.5 2.05882C8.98471 2.05882 2.05882 8.98471 2.05882 17.5C2.05882 26.0153 8.98471 32.9412 17.5 32.9412C26.0153 32.9412 32.9412 26.0153 32.9412 17.5Z" fill="#F2F2F2"/>
</svg>
