<svg width="36" height="35" viewBox="0 0 36 35" fill="none" xmlns="http://www.w3.org/2000/svg">
<path fill-rule="evenodd" clip-rule="evenodd" d="M0.46875 17.5C0.46875 12.8587 2.3125 8.40752 5.59438 5.12563C8.87627 1.84375 13.3275 0 17.9688 0C22.61 0 27.0612 1.84375 30.3431 5.12563C33.625 8.40752 35.4687 12.8587 35.4688 17.5C35.4687 22.1413 33.625 26.5925 30.3431 29.8744C27.0612 33.1563 22.61 35 17.9688 35C13.3275 35 8.87627 33.1563 5.59438 29.8744C2.3125 26.5925 0.46875 22.1413 0.46875 17.5ZM17.9688 2.1875C15.0851 2.18765 12.2602 3.00204 9.81901 4.53694C7.37783 6.07183 5.41968 8.26484 4.16992 10.8635C2.92016 13.4623 2.4296 16.3611 2.75468 19.2263C3.07977 22.0915 4.2073 24.8067 6.0075 27.0594C7.56063 24.5569 10.9797 21.875 17.9688 21.875C24.9578 21.875 28.3747 24.5547 29.93 27.0594C31.7302 24.8067 32.8577 22.0915 33.1828 19.2263C33.5079 16.3611 33.0173 13.4623 31.7676 10.8635C30.5178 8.26484 28.5597 6.07183 26.1185 4.53694C23.6773 3.00204 20.8524 2.18765 17.9688 2.1875Z" fill="#F2F2F2"/>
<path d="M24.5312 10.9375C24.5312 12.678 23.8398 14.3472 22.6091 15.5779C21.3784 16.8086 19.7092 17.5 17.9688 17.5C16.2283 17.5 14.5591 16.8086 13.3284 15.5779C12.0977 14.3472 11.4062 12.678 11.4062 10.9375C11.4062 9.19702 12.0977 7.52782 13.3284 6.29711C14.5591 5.0664 16.2283 4.375 17.9688 4.375C19.7092 4.375 21.3784 5.0664 22.6091 6.29711C23.8398 7.52782 24.5312 9.19702 24.5312 10.9375Z" fill="#F2F2F2"/>
</svg>
