<svg width="29" height="29" viewBox="0 0 29 29" fill="none" xmlns="http://www.w3.org/2000/svg">
<path d="M0 23.8824H13.1818V27.2941H0V23.8824ZM0 11.9412H18.4545V15.3529H0V11.9412ZM0 0H26.3636V3.41176H0V0ZM22.4091 19.0559V8.52941H29V11.9412H25.0455V23.8824C25.0455 26.7088 23.275 29 21.0909 29C18.9068 29 17.1364 26.7088 17.1364 23.8824C17.1364 21.0559 18.9068 18.7647 21.0909 18.7647C21.5531 18.7647 21.9968 18.8674 22.4091 19.0559ZM21.0909 25.5882C21.8189 25.5882 22.4091 24.8245 22.4091 23.8824C22.4091 22.9402 21.8189 22.1765 21.0909 22.1765C20.3629 22.1765 19.7727 22.9402 19.7727 23.8824C19.7727 24.8245 20.3629 25.5882 21.0909 25.5882Z" fill="#F2F2F2"/>
</svg>
