<svg width="36" height="35" viewBox="0 0 36 35" fill="none" xmlns="http://www.w3.org/2000/svg">
<path d="M14.6596 8.53588L23.6216 17.5L14.6575 26.4641L13.2019 25.0085L20.7105 17.5L13.2019 9.99353L14.6596 8.53588ZM35.5484 17.5C35.5484 27.1497 27.6981 35 18.0484 35C8.3987 35 0.548401 27.1497 0.548401 17.5C0.548401 7.85029 8.3987 0 18.0484 0C27.6981 0 35.5484 7.85029 35.5484 17.5ZM33.4896 17.5C33.4896 8.98471 26.5637 2.05882 18.0484 2.05882C9.53311 2.05882 2.60722 8.98471 2.60722 17.5C2.60722 26.0153 9.53311 32.9412 18.0484 32.9412C26.5637 32.9412 33.4896 26.0153 33.4896 17.5Z" fill="#F2F2F2"/>
</svg>
